<mxfile host="app.diagrams.net" modified="2024-04-22T12:04:10.981Z" agent="Mozilla/5.0 (Windows NT 10.0; Win64; x64) AppleWebKit/537.36 (KHTML, like Gecko) Chrome/124.0.0.0 Safari/537.36" etag="ShCznYuAOKj8eBoHLr1V" version="24.2.0" type="device">
  <diagram name="Page-1" id="o-HHHYo5CIpOPjumY03Q">
    <mxGraphModel dx="880" dy="1568" grid="1" gridSize="10" guides="1" tooltips="1" connect="1" arrows="1" fold="1" page="1" pageScale="1" pageWidth="850" pageHeight="1100" math="0" shadow="0">
      <root>
        <mxCell id="0" />
        <mxCell id="1" parent="0" />
        <mxCell id="qiABGw3q3QimeDCaBO7--1" value="User" style="shape=umlActor;verticalLabelPosition=bottom;verticalAlign=top;html=1;outlineConnect=0;" vertex="1" parent="1">
          <mxGeometry x="60" y="470" width="30" height="60" as="geometry" />
        </mxCell>
        <mxCell id="qiABGw3q3QimeDCaBO7--19" style="edgeStyle=orthogonalEdgeStyle;rounded=0;orthogonalLoop=1;jettySize=auto;html=1;exitX=1;exitY=0.25;exitDx=0;exitDy=0;entryX=0.5;entryY=1;entryDx=0;entryDy=0;" edge="1" parent="1" source="qiABGw3q3QimeDCaBO7--2" target="qiABGw3q3QimeDCaBO7--18">
          <mxGeometry relative="1" as="geometry" />
        </mxCell>
        <mxCell id="qiABGw3q3QimeDCaBO7--2" value="Search Service" style="rounded=0;whiteSpace=wrap;html=1;" vertex="1" parent="1">
          <mxGeometry x="170" y="480" width="130" height="40" as="geometry" />
        </mxCell>
        <mxCell id="qiABGw3q3QimeDCaBO7--3" value="" style="endArrow=classic;html=1;rounded=0;" edge="1" parent="1" source="qiABGw3q3QimeDCaBO7--1">
          <mxGeometry width="50" height="50" relative="1" as="geometry">
            <mxPoint x="120" y="550" as="sourcePoint" />
            <mxPoint x="170" y="500" as="targetPoint" />
          </mxGeometry>
        </mxCell>
        <mxCell id="qiABGw3q3QimeDCaBO7--4" value="DB" style="shape=cylinder3;whiteSpace=wrap;html=1;boundedLbl=1;backgroundOutline=1;size=15;" vertex="1" parent="1">
          <mxGeometry x="520" y="450" width="60" height="80" as="geometry" />
        </mxCell>
        <mxCell id="qiABGw3q3QimeDCaBO7--5" value="Search History DB" style="text;html=1;align=center;verticalAlign=middle;resizable=0;points=[];autosize=1;strokeColor=none;fillColor=none;" vertex="1" parent="1">
          <mxGeometry x="500" y="540" width="120" height="30" as="geometry" />
        </mxCell>
        <mxCell id="qiABGw3q3QimeDCaBO7--8" style="edgeStyle=orthogonalEdgeStyle;rounded=0;orthogonalLoop=1;jettySize=auto;html=1;exitX=1;exitY=0.5;exitDx=0;exitDy=0;entryX=0;entryY=0;entryDx=0;entryDy=52.5;entryPerimeter=0;" edge="1" parent="1" source="qiABGw3q3QimeDCaBO7--2" target="qiABGw3q3QimeDCaBO7--4">
          <mxGeometry relative="1" as="geometry" />
        </mxCell>
        <mxCell id="qiABGw3q3QimeDCaBO7--9" value="Generate Recommendations Batch jobs" style="rounded=0;whiteSpace=wrap;html=1;" vertex="1" parent="1">
          <mxGeometry x="550" y="300" width="190" height="40" as="geometry" />
        </mxCell>
        <mxCell id="qiABGw3q3QimeDCaBO7--10" style="edgeStyle=orthogonalEdgeStyle;rounded=0;orthogonalLoop=1;jettySize=auto;html=1;exitX=0.855;exitY=0;exitDx=0;exitDy=4.35;exitPerimeter=0;entryX=0.111;entryY=1;entryDx=0;entryDy=0;entryPerimeter=0;" edge="1" parent="1" source="qiABGw3q3QimeDCaBO7--4" target="qiABGw3q3QimeDCaBO7--9">
          <mxGeometry relative="1" as="geometry" />
        </mxCell>
        <mxCell id="qiABGw3q3QimeDCaBO7--11" value="DB" style="shape=cylinder3;whiteSpace=wrap;html=1;boundedLbl=1;backgroundOutline=1;size=15;" vertex="1" parent="1">
          <mxGeometry x="380" y="280" width="60" height="80" as="geometry" />
        </mxCell>
        <mxCell id="qiABGw3q3QimeDCaBO7--12" value="Recommendations Db" style="text;html=1;align=center;verticalAlign=middle;resizable=0;points=[];autosize=1;strokeColor=none;fillColor=none;" vertex="1" parent="1">
          <mxGeometry x="350" y="370" width="140" height="30" as="geometry" />
        </mxCell>
        <mxCell id="qiABGw3q3QimeDCaBO7--16" style="edgeStyle=orthogonalEdgeStyle;rounded=0;orthogonalLoop=1;jettySize=auto;html=1;exitX=1;exitY=0.5;exitDx=0;exitDy=0;" edge="1" parent="1" source="qiABGw3q3QimeDCaBO7--14" target="qiABGw3q3QimeDCaBO7--11">
          <mxGeometry relative="1" as="geometry" />
        </mxCell>
        <mxCell id="qiABGw3q3QimeDCaBO7--14" value="GetRecommendations service" style="rounded=0;whiteSpace=wrap;html=1;" vertex="1" parent="1">
          <mxGeometry x="70" y="300" width="210" height="40" as="geometry" />
        </mxCell>
        <mxCell id="qiABGw3q3QimeDCaBO7--15" style="edgeStyle=orthogonalEdgeStyle;rounded=0;orthogonalLoop=1;jettySize=auto;html=1;exitX=0.5;exitY=0;exitDx=0;exitDy=0;entryX=0.553;entryY=1.075;entryDx=0;entryDy=0;entryPerimeter=0;" edge="1" parent="1" source="qiABGw3q3QimeDCaBO7--2" target="qiABGw3q3QimeDCaBO7--14">
          <mxGeometry relative="1" as="geometry" />
        </mxCell>
        <mxCell id="qiABGw3q3QimeDCaBO7--17" style="edgeStyle=orthogonalEdgeStyle;rounded=0;orthogonalLoop=1;jettySize=auto;html=1;exitX=0;exitY=0.5;exitDx=0;exitDy=0;entryX=1;entryY=0.5;entryDx=0;entryDy=0;entryPerimeter=0;" edge="1" parent="1" source="qiABGw3q3QimeDCaBO7--9" target="qiABGw3q3QimeDCaBO7--11">
          <mxGeometry relative="1" as="geometry" />
        </mxCell>
        <mxCell id="qiABGw3q3QimeDCaBO7--26" style="edgeStyle=orthogonalEdgeStyle;rounded=0;orthogonalLoop=1;jettySize=auto;html=1;exitX=0.5;exitY=0;exitDx=0;exitDy=0;entryX=0.5;entryY=1;entryDx=0;entryDy=0;entryPerimeter=0;" edge="1" parent="1" target="qiABGw3q3QimeDCaBO7--24">
          <mxGeometry relative="1" as="geometry">
            <mxPoint x="460" y="130" as="sourcePoint" />
          </mxGeometry>
        </mxCell>
        <mxCell id="qiABGw3q3QimeDCaBO7--33" style="edgeStyle=orthogonalEdgeStyle;rounded=0;orthogonalLoop=1;jettySize=auto;html=1;exitX=1;exitY=0.5;exitDx=0;exitDy=0;entryX=0;entryY=0.5;entryDx=0;entryDy=0;" edge="1" parent="1" target="qiABGw3q3QimeDCaBO7--32">
          <mxGeometry relative="1" as="geometry">
            <mxPoint x="535" y="150" as="sourcePoint" />
          </mxGeometry>
        </mxCell>
        <mxCell id="qiABGw3q3QimeDCaBO7--18" value="AddToCart service" style="rounded=0;whiteSpace=wrap;html=1;" vertex="1" parent="1">
          <mxGeometry x="400" y="130" width="150" height="40" as="geometry" />
        </mxCell>
        <mxCell id="qiABGw3q3QimeDCaBO7--20" value="DB" style="shape=cylinder3;whiteSpace=wrap;html=1;boundedLbl=1;backgroundOutline=1;size=15;" vertex="1" parent="1">
          <mxGeometry x="630" y="550" width="60" height="80" as="geometry" />
        </mxCell>
        <mxCell id="qiABGw3q3QimeDCaBO7--21" value="Products&amp;nbsp; DB" style="text;html=1;align=center;verticalAlign=middle;resizable=0;points=[];autosize=1;strokeColor=none;fillColor=none;" vertex="1" parent="1">
          <mxGeometry x="625" y="640" width="90" height="30" as="geometry" />
        </mxCell>
        <mxCell id="qiABGw3q3QimeDCaBO7--22" style="edgeStyle=orthogonalEdgeStyle;rounded=0;orthogonalLoop=1;jettySize=auto;html=1;exitX=0.5;exitY=1;exitDx=0;exitDy=0;entryX=0.017;entryY=0.588;entryDx=0;entryDy=0;entryPerimeter=0;" edge="1" parent="1" source="qiABGw3q3QimeDCaBO7--2" target="qiABGw3q3QimeDCaBO7--20">
          <mxGeometry relative="1" as="geometry" />
        </mxCell>
        <mxCell id="qiABGw3q3QimeDCaBO7--23" value="" style="endArrow=classic;html=1;rounded=0;entryX=0.574;entryY=1;entryDx=0;entryDy=0;entryPerimeter=0;" edge="1" parent="1" target="qiABGw3q3QimeDCaBO7--9">
          <mxGeometry width="50" height="50" relative="1" as="geometry">
            <mxPoint x="660" y="550" as="sourcePoint" />
            <mxPoint x="710" y="500" as="targetPoint" />
          </mxGeometry>
        </mxCell>
        <mxCell id="qiABGw3q3QimeDCaBO7--24" value="DB" style="shape=cylinder3;whiteSpace=wrap;html=1;boundedLbl=1;backgroundOutline=1;size=15;" vertex="1" parent="1">
          <mxGeometry x="430" y="-40" width="60" height="80" as="geometry" />
        </mxCell>
        <mxCell id="qiABGw3q3QimeDCaBO7--25" value="Cart DB" style="text;html=1;align=center;verticalAlign=middle;resizable=0;points=[];autosize=1;strokeColor=none;fillColor=none;" vertex="1" parent="1">
          <mxGeometry x="465" y="40" width="70" height="30" as="geometry" />
        </mxCell>
        <mxCell id="qiABGw3q3QimeDCaBO7--27" value="DB" style="shape=cylinder3;whiteSpace=wrap;html=1;boundedLbl=1;backgroundOutline=1;size=15;" vertex="1" parent="1">
          <mxGeometry x="615" y="-90" width="60" height="80" as="geometry" />
        </mxCell>
        <mxCell id="qiABGw3q3QimeDCaBO7--28" value="Order DB" style="text;html=1;align=center;verticalAlign=middle;resizable=0;points=[];autosize=1;strokeColor=none;fillColor=none;" vertex="1" parent="1">
          <mxGeometry x="640" y="-10" width="70" height="30" as="geometry" />
        </mxCell>
        <mxCell id="qiABGw3q3QimeDCaBO7--31" style="edgeStyle=orthogonalEdgeStyle;rounded=0;orthogonalLoop=1;jettySize=auto;html=1;exitX=1;exitY=0.5;exitDx=0;exitDy=0;entryX=0;entryY=0;entryDx=0;entryDy=27.5;entryPerimeter=0;" edge="1" parent="1" source="qiABGw3q3QimeDCaBO7--29" target="qiABGw3q3QimeDCaBO7--27">
          <mxGeometry relative="1" as="geometry">
            <mxPoint x="490" y="-60" as="targetPoint" />
            <Array as="points">
              <mxPoint x="380" y="-60" />
              <mxPoint x="380" y="-59" />
              <mxPoint x="615" y="-59" />
            </Array>
          </mxGeometry>
        </mxCell>
        <mxCell id="qiABGw3q3QimeDCaBO7--29" value="Order Status Service" style="rounded=0;whiteSpace=wrap;html=1;" vertex="1" parent="1">
          <mxGeometry x="120" y="-80" width="150" height="40" as="geometry" />
        </mxCell>
        <mxCell id="qiABGw3q3QimeDCaBO7--30" style="edgeStyle=orthogonalEdgeStyle;rounded=0;orthogonalLoop=1;jettySize=auto;html=1;exitX=0.25;exitY=0;exitDx=0;exitDy=0;entryX=0.387;entryY=1.1;entryDx=0;entryDy=0;entryPerimeter=0;" edge="1" parent="1" source="qiABGw3q3QimeDCaBO7--14" target="qiABGw3q3QimeDCaBO7--29">
          <mxGeometry relative="1" as="geometry" />
        </mxCell>
        <mxCell id="qiABGw3q3QimeDCaBO7--32" value="PlaceOrder Service" style="rounded=0;whiteSpace=wrap;html=1;" vertex="1" parent="1">
          <mxGeometry x="590" y="130" width="150" height="40" as="geometry" />
        </mxCell>
        <mxCell id="qiABGw3q3QimeDCaBO7--34" value="" style="endArrow=classic;html=1;rounded=0;exitX=0.4;exitY=0.05;exitDx=0;exitDy=0;entryX=0.5;entryY=1;entryDx=0;entryDy=0;entryPerimeter=0;exitPerimeter=0;" edge="1" parent="1" source="qiABGw3q3QimeDCaBO7--32" target="qiABGw3q3QimeDCaBO7--27">
          <mxGeometry width="50" height="50" relative="1" as="geometry">
            <mxPoint x="445" y="90" as="sourcePoint" />
            <mxPoint x="575" y="50" as="targetPoint" />
            <Array as="points">
              <mxPoint x="645" y="60" />
            </Array>
          </mxGeometry>
        </mxCell>
        <mxCell id="qiABGw3q3QimeDCaBO7--35" value="Product Review Service" style="rounded=0;whiteSpace=wrap;html=1;" vertex="1" parent="1">
          <mxGeometry x="70" y="-250" width="150" height="40" as="geometry" />
        </mxCell>
        <mxCell id="qiABGw3q3QimeDCaBO7--38" style="edgeStyle=orthogonalEdgeStyle;rounded=0;orthogonalLoop=1;jettySize=auto;html=1;exitX=0.5;exitY=1;exitDx=0;exitDy=0;exitPerimeter=0;entryX=1;entryY=0;entryDx=0;entryDy=0;" edge="1" parent="1" source="qiABGw3q3QimeDCaBO7--36" target="qiABGw3q3QimeDCaBO7--2">
          <mxGeometry relative="1" as="geometry" />
        </mxCell>
        <mxCell id="qiABGw3q3QimeDCaBO7--39" style="edgeStyle=orthogonalEdgeStyle;rounded=0;orthogonalLoop=1;jettySize=auto;html=1;exitX=0.145;exitY=1;exitDx=0;exitDy=-4.35;exitPerimeter=0;" edge="1" parent="1" source="qiABGw3q3QimeDCaBO7--36">
          <mxGeometry relative="1" as="geometry">
            <mxPoint x="280" y="302" as="targetPoint" />
          </mxGeometry>
        </mxCell>
        <mxCell id="qiABGw3q3QimeDCaBO7--36" value="DB" style="shape=cylinder3;whiteSpace=wrap;html=1;boundedLbl=1;backgroundOutline=1;size=15;" vertex="1" parent="1">
          <mxGeometry x="340" y="-270" width="60" height="80" as="geometry" />
        </mxCell>
        <mxCell id="qiABGw3q3QimeDCaBO7--37" value="Product Review DB" style="text;html=1;align=center;verticalAlign=middle;resizable=0;points=[];autosize=1;strokeColor=none;fillColor=none;" vertex="1" parent="1">
          <mxGeometry x="370" y="-200" width="130" height="30" as="geometry" />
        </mxCell>
        <mxCell id="qiABGw3q3QimeDCaBO7--40" style="edgeStyle=orthogonalEdgeStyle;rounded=0;orthogonalLoop=1;jettySize=auto;html=1;exitX=1;exitY=0.5;exitDx=0;exitDy=0;entryX=0;entryY=0.5;entryDx=0;entryDy=0;entryPerimeter=0;" edge="1" parent="1" source="qiABGw3q3QimeDCaBO7--35" target="qiABGw3q3QimeDCaBO7--36">
          <mxGeometry relative="1" as="geometry" />
        </mxCell>
        <mxCell id="qiABGw3q3QimeDCaBO7--41" value="" style="endArrow=classic;html=1;rounded=0;" edge="1" parent="1">
          <mxGeometry width="50" height="50" relative="1" as="geometry">
            <mxPoint x="80" y="300" as="sourcePoint" />
            <mxPoint x="80" y="-200" as="targetPoint" />
          </mxGeometry>
        </mxCell>
        <mxCell id="qiABGw3q3QimeDCaBO7--42" value="&lt;div&gt;1 Search for Product&lt;/div&gt;&lt;div&gt;2 Recommendations on HomePage&lt;/div&gt;&lt;div&gt;3 Place order&lt;/div&gt;&lt;div&gt;4 check Order Status&lt;/div&gt;&lt;div&gt;5 Write/view Product reviews&lt;/div&gt;" style="text;html=1;align=left;verticalAlign=middle;whiteSpace=wrap;rounded=0;" vertex="1" parent="1">
          <mxGeometry x="580" y="-280" width="200" height="120" as="geometry" />
        </mxCell>
        <mxCell id="qiABGw3q3QimeDCaBO7--43" value="&lt;b&gt;&lt;font style=&quot;font-size: 16px;&quot;&gt;JioMart System Design&lt;/font&gt;&lt;/b&gt;" style="text;html=1;align=center;verticalAlign=middle;whiteSpace=wrap;rounded=0;" vertex="1" parent="1">
          <mxGeometry x="330" y="-380" width="180" height="30" as="geometry" />
        </mxCell>
      </root>
    </mxGraphModel>
  </diagram>
</mxfile>
